<?xml version="1.0" encoding="utf-8"?>
<!-- Generator: Adobe Illustrator 17.1.0, SVG Export Plug-In . SVG Version: 6.00 Build 0)  -->
<!DOCTYPE svg PUBLIC "-//W3C//DTD SVG 1.1//EN" "http://www.w3.org/Graphics/SVG/1.1/DTD/svg11.dtd">
<svg version="1.1" id="Layer_1" xmlns="http://www.w3.org/2000/svg" xmlns:xlink="http://www.w3.org/1999/xlink" x="0px" y="0px"
	 viewBox="0 226 720 124" enable-background="new 0 226 720 124" xml:space="preserve">
<g>
	<g>
		<g enable-background="new    ">
			<path fill="#F9B10A" d="M6.1,327.7v-72.5h30.8c7.7,0,13.4,0.7,16.9,2c3.5,1.3,6.3,3.6,8.4,6.9c2.1,3.3,3.2,7.1,3.2,11.4
				c0,5.4-1.6,9.9-4.8,13.5c-3.2,3.5-8,5.8-14.3,6.7c3.2,1.8,5.8,3.9,7.8,6.1c2.1,2.2,4.8,6.1,8.3,11.8l8.8,14.1H53.7L43.2,312
				c-3.8-5.6-6.3-9.2-7.7-10.7c-1.4-1.5-2.9-2.5-4.4-3c-1.5-0.5-4-0.8-7.4-0.8h-3v30.3H6.1z M20.7,285.9h10.8c7,0,11.4-0.3,13.2-0.9
				c1.7-0.6,3.1-1.6,4.1-3.1c1-1.5,1.5-3.3,1.5-5.4c0-2.4-0.7-4.4-2-5.9c-1.3-1.5-3.1-2.4-5.5-2.8c-1.2-0.2-4.7-0.2-10.7-0.2H20.7
				V285.9z"/>
			<path fill="#F9B10A" d="M76.2,292c0-7.4,1.1-13.6,3.3-18.6c1.6-3.7,3.9-7,6.7-9.9c2.9-2.9,6-5.1,9.4-6.5
				c4.5-1.9,9.7-2.9,15.6-2.9c10.7,0,19.2,3.3,25.6,9.9s9.6,15.8,9.6,27.6c0,11.7-3.2,20.9-9.5,27.5c-6.4,6.6-14.9,9.9-25.5,9.9
				c-10.8,0-19.3-3.3-25.7-9.9C79.4,312.5,76.2,303.5,76.2,292z M91.3,291.5c0,8.2,1.9,14.4,5.7,18.7c3.8,4.2,8.6,6.4,14.4,6.4
				c5.8,0,10.6-2.1,14.4-6.3c3.7-4.2,5.6-10.5,5.6-18.9c0-8.3-1.8-14.5-5.5-18.6c-3.6-4.1-8.5-6.1-14.5-6.1c-6,0-10.9,2.1-14.6,6.2
				C93.1,276.9,91.3,283.1,91.3,291.5z"/>
			<path fill="#F9B10A" d="M176.9,327.7v-30.5l-26.5-42h17.2l17.1,28.7l16.7-28.7h16.9l-26.6,42.1v30.4H176.9z"/>
			<path fill="#F9B10A" d="M281.5,327.7h-15.9l-6.3-16.5h-29l-6,16.5h-15.5l28.2-72.5h15.5L281.5,327.7z M254.6,299.1l-10-26.9
				l-9.8,26.9H254.6z"/>
			<path fill="#F9B10A" d="M289.7,327.7v-71.9h14.6v59.7h36.4v12.2H289.7z"/>
		</g>
		<g enable-background="new    ">
			<path fill="#9D9B9B" d="M493.6,286.5l11-28.6h4.1l11.7,28.6h-4.3l-3.3-8.7h-12l-3.1,8.7H493.6z M501.9,274.7h9.7l-3-7.9
				c-0.9-2.4-1.6-4.4-2-5.9c-0.4,1.8-0.9,3.7-1.5,5.5L501.9,274.7z"/>
			<path fill="#9D9B9B" d="M523.4,286.5v-28.6h10.8c1.9,0,3.4,0.1,4.4,0.3c1.4,0.2,2.6,0.7,3.5,1.3c1,0.7,1.7,1.6,2.3,2.8
				c0.6,1.2,0.9,2.5,0.9,3.9c0,2.4-0.8,4.5-2.3,6.2c-1.5,1.7-4.3,2.5-8.4,2.5h-7.3v11.6H523.4z M527.2,271.5h7.4
				c2.4,0,4.2-0.5,5.2-1.4c1-0.9,1.5-2.2,1.5-3.8c0-1.2-0.3-2.2-0.9-3.1c-0.6-0.9-1.4-1.4-2.4-1.7c-0.6-0.2-1.8-0.3-3.5-0.3h-7.3
				V271.5z"/>
			<path fill="#9D9B9B" d="M550.1,286.5v-28.6h10.8c1.9,0,3.4,0.1,4.4,0.3c1.4,0.2,2.6,0.7,3.5,1.3c1,0.7,1.7,1.6,2.3,2.8
				c0.6,1.2,0.9,2.5,0.9,3.9c0,2.4-0.8,4.5-2.3,6.2c-1.5,1.7-4.3,2.5-8.4,2.5h-7.3v11.6H550.1z M553.9,271.5h7.4
				c2.4,0,4.2-0.5,5.2-1.4c1-0.9,1.5-2.2,1.5-3.8c0-1.2-0.3-2.2-0.9-3.1c-0.6-0.9-1.4-1.4-2.4-1.7c-0.6-0.2-1.8-0.3-3.5-0.3h-7.3
				V271.5z"/>
			<path fill="#9D9B9B" d="M576.6,286.5v-28.6h3.8v25.3h14.1v3.4H576.6z"/>
			<path fill="#9D9B9B" d="M599.7,286.5v-28.6h3.8v28.6H599.7z"/>
			<path fill="#9D9B9B" d="M607,286.5l11-28.6h4.1l11.7,28.6h-4.3l-3.3-8.7h-12l-3.1,8.7H607z M615.3,274.7h9.7l-3-7.9
				c-0.9-2.4-1.6-4.4-2-5.9c-0.4,1.8-0.9,3.7-1.5,5.5L615.3,274.7z"/>
			<path fill="#9D9B9B" d="M636.8,286.5v-28.6h3.9l15,22.5v-22.5h3.6v28.6h-3.9l-15-22.5v22.5H636.8z"/>
			<path fill="#9D9B9B" d="M686.1,276.5l3.8,1c-0.8,3.1-2.2,5.5-4.3,7.1c-2.1,1.6-4.6,2.5-7.6,2.5c-3.1,0-5.6-0.6-7.5-1.9
				c-1.9-1.3-3.4-3.1-4.4-5.5c-1-2.4-1.5-4.9-1.5-7.7c0-3,0.6-5.6,1.7-7.8c1.1-2.2,2.8-3.9,4.9-5.1s4.4-1.7,6.9-1.7
				c2.9,0,5.3,0.7,7.2,2.2c2,1.5,3.3,3.5,4.1,6.2l-3.7,0.9c-0.7-2.1-1.6-3.6-2.9-4.6c-1.3-0.9-2.9-1.4-4.8-1.4c-2.2,0-4,0.5-5.5,1.6
				s-2.5,2.5-3.1,4.2c-0.6,1.8-0.9,3.6-0.9,5.5c0,2.4,0.4,4.6,1.1,6.4c0.7,1.8,1.8,3.2,3.3,4.1c1.5,0.9,3.1,1.3,4.9,1.3
				c2.1,0,3.9-0.6,5.4-1.8C684.6,280.7,685.6,278.9,686.1,276.5z"/>
			<path fill="#9D9B9B" d="M694.7,286.5v-28.6h20.7v3.4h-16.9v8.8h15.8v3.4h-15.8v9.7H716v3.4H694.7z"/>
		</g>
		<g enable-background="new    ">
			<path fill="#9D9B9B" d="M495.5,316.1l3.6-0.3c0.2,1.4,0.6,2.6,1.2,3.5c0.6,0.9,1.6,1.7,2.9,2.2c1.3,0.6,2.8,0.8,4.4,0.8
				c1.4,0,2.7-0.2,3.8-0.6c1.1-0.4,1.9-1,2.5-1.8c0.5-0.7,0.8-1.6,0.8-2.5c0-0.9-0.3-1.7-0.8-2.4c-0.5-0.7-1.4-1.2-2.6-1.7
				c-0.8-0.3-2.5-0.8-5.1-1.4c-2.6-0.6-4.5-1.2-5.5-1.8c-1.4-0.7-2.4-1.6-3.1-2.7c-0.7-1.1-1-2.2-1-3.6c0-1.4,0.4-2.8,1.2-4.1
				c0.8-1.3,2-2.2,3.6-2.9c1.6-0.7,3.3-1,5.3-1c2.1,0,4,0.3,5.6,1c1.6,0.7,2.9,1.7,3.7,3c0.9,1.3,1.3,2.8,1.4,4.5l-3.6,0.3
				c-0.2-1.8-0.9-3.2-2-4.1c-1.1-0.9-2.8-1.4-5-1.4c-2.3,0-4,0.4-5,1.3c-1,0.8-1.6,1.9-1.6,3c0,1,0.4,1.9,1.1,2.5
				c0.7,0.7,2.6,1.3,5.7,2c3.1,0.7,5.2,1.3,6.3,1.8c1.7,0.8,2.9,1.7,3.7,2.9c0.8,1.2,1.2,2.5,1.2,4.1c0,1.5-0.4,3-1.3,4.3
				c-0.9,1.3-2.1,2.4-3.8,3.1c-1.6,0.7-3.5,1.1-5.5,1.1c-2.6,0-4.8-0.4-6.5-1.1c-1.8-0.8-3.1-1.9-4.1-3.4
				C496,319.7,495.5,318,495.5,316.1z"/>
			<path fill="#9D9B9B" d="M523.5,325.2v-28.6h20.7v3.4h-16.9v8.8h15.8v3.4h-15.8v9.7h17.6v3.4H523.5z"/>
			<path fill="#9D9B9B" d="M550.2,325.2v-28.6h12.7c2.6,0,4.5,0.3,5.8,0.8c1.3,0.5,2.4,1.4,3.2,2.7c0.8,1.3,1.2,2.7,1.2,4.3
				c0,2-0.7,3.7-2,5.1c-1.3,1.4-3.3,2.3-6.1,2.7c1,0.5,1.8,1,2.3,1.4c1.1,1,2.2,2.3,3.1,3.8l5,7.8h-4.8l-3.8-6c-1.1-1.7-2-3-2.7-3.9
				c-0.7-0.9-1.4-1.5-1.9-1.9c-0.6-0.4-1.1-0.6-1.7-0.8c-0.4-0.1-1.1-0.1-2.1-0.1H554v12.7H550.2z M554,309.3h8.1
				c1.7,0,3.1-0.2,4.1-0.5c1-0.4,1.7-0.9,2.2-1.7c0.5-0.8,0.8-1.6,0.8-2.6c0-1.4-0.5-2.5-1.5-3.3c-1-0.9-2.5-1.3-4.7-1.3H554V309.3z
				"/>
			<path fill="#9D9B9B" d="M586.5,325.2l-11.1-28.6h4.1l7.4,20.8c0.6,1.7,1.1,3.2,1.5,4.7c0.4-1.6,1-3.1,1.5-4.7l7.7-20.8h3.9
				l-11.2,28.6H586.5z"/>
			<path fill="#9D9B9B" d="M605.6,325.2v-28.6h3.8v28.6H605.6z"/>
			<path fill="#9D9B9B" d="M636.5,315.2l3.8,1c-0.8,3.1-2.2,5.5-4.3,7.1c-2.1,1.6-4.6,2.5-7.6,2.5c-3.1,0-5.6-0.6-7.5-1.9
				c-1.9-1.3-3.4-3.1-4.4-5.5c-1-2.4-1.5-4.9-1.5-7.7c0-3,0.6-5.6,1.7-7.8c1.1-2.2,2.8-3.9,4.9-5.1c2.1-1.2,4.4-1.7,6.9-1.7
				c2.9,0,5.3,0.7,7.2,2.2c2,1.5,3.3,3.5,4.1,6.2l-3.7,0.9c-0.7-2.1-1.6-3.6-2.9-4.6c-1.3-0.9-2.9-1.4-4.8-1.4c-2.2,0-4,0.5-5.5,1.6
				c-1.5,1.1-2.5,2.5-3.1,4.2c-0.6,1.8-0.9,3.6-0.9,5.5c0,2.4,0.4,4.6,1.1,6.4c0.7,1.8,1.8,3.2,3.3,4.1c1.5,0.9,3.1,1.3,4.9,1.3
				c2.1,0,3.9-0.6,5.4-1.8C635,319.4,636,317.6,636.5,315.2z"/>
			<path fill="#9D9B9B" d="M645,325.2v-28.6h20.7v3.4h-16.9v8.8h15.8v3.4h-15.8v9.7h17.6v3.4H645z"/>
		</g>
		<g enable-background="new    ">
			<path fill="#9D9B9B" d="M671.1,316.1l3.6-0.3c0.2,1.4,0.6,2.6,1.2,3.5c0.6,0.9,1.6,1.7,2.9,2.2c1.3,0.6,2.8,0.8,4.4,0.8
				c1.4,0,2.7-0.2,3.8-0.6c1.1-0.4,1.9-1,2.5-1.8c0.5-0.7,0.8-1.6,0.8-2.5c0-0.9-0.3-1.7-0.8-2.4c-0.5-0.7-1.4-1.2-2.6-1.7
				c-0.8-0.3-2.5-0.8-5.1-1.4c-2.6-0.6-4.5-1.2-5.5-1.8c-1.4-0.7-2.4-1.6-3.1-2.7c-0.7-1.1-1-2.2-1-3.6c0-1.4,0.4-2.8,1.2-4.1
				c0.8-1.3,2-2.2,3.6-2.9c1.6-0.7,3.3-1,5.3-1c2.1,0,4,0.3,5.6,1c1.6,0.7,2.9,1.7,3.7,3c0.9,1.3,1.3,2.8,1.4,4.5l-3.6,0.3
				c-0.2-1.8-0.9-3.2-2-4.1c-1.1-0.9-2.8-1.4-5-1.4c-2.3,0-4,0.4-5,1.3s-1.6,1.9-1.6,3c0,1,0.4,1.9,1.1,2.5c0.7,0.7,2.6,1.3,5.7,2
				c3.1,0.7,5.2,1.3,6.3,1.8c1.7,0.8,2.9,1.7,3.7,2.9c0.8,1.2,1.2,2.5,1.2,4.1c0,1.5-0.4,3-1.3,4.3c-0.9,1.3-2.1,2.4-3.8,3.1
				c-1.6,0.7-3.5,1.1-5.5,1.1c-2.6,0-4.8-0.4-6.5-1.1c-1.8-0.8-3.1-1.9-4.1-3.4C671.7,319.7,671.1,318,671.1,316.1z"/>
		</g>
		<path fill="#F9B10A" d="M420.4,315.4l0.3,0.3c5.4,5,7.7,11.9,5,17.5c-3.1,6.6-11.8,9.3-20.5,6.8l-1.9-0.7l2.9,0.5
			c7.4,0.8,14.3-2.3,17.1-8.2c2.3-4.9,1.3-10.7-2.3-15.5L420.4,315.4z M385.1,278.8l-0.9,0.6c-6.6,5.5-4.5,18.1-1.5,25
			c0.9,2,2.2,4.5,3.9,7.1l2.7,3.7l-0.1-0.1c-4-4-7.2-9.3-8.7-12.7c-3-6.9-5-20.2,4.2-23.5L385.1,278.8z M437.7,268.1
			c0.5,1.2,1.4,1.7,1.6,3.5c0.8,1.5,0.7,0.4,3,2.7c-1.2-0.2-2.9-1.6-4.1-1.8c-4.4,1.4-4.6-0.1-7.2-0.2
			C432.4,271.1,433.4,269.5,437.7,268.1z M407.1,257.2c-3.7,0-6.7,2.9-6.7,6.4c0,2.7,1.7,4.9,4.1,5.9l2.5,0.5l-0.5,2.7
			c-3.4,26.6,42,23.6,38.5,61.2c1.9-2,4.4-13.5,2.3-21.9c-8.9-20.6-28.2-21.3-30.6-31.5c-0.5-1.1-2.4-8.9,8.2-12.1
			c-5,4.3-3.7,7.7-1.9,10.4c3.3,2.9,9.4,5.7,12.6,7.3c1.8,0.8,4.1-1.7,6-0.8c-1.5,1-3.5,2.1-3.8,4.8c-0.1,1.5,1,6.7,7.2,7.6
			c5,1.1,7.3,0.3,7.8-1.2c0.3-0.1,0.4,0.8,0.3,1.6l-0.1,0.9l-0.1,0c0,0.3,0,0.3,0,0.1c0,0,0-0.1,0-0.1l0.1-0.1
			c0.6-0.6,2.4-3.6,0.2-9.6c-0.8-0.4-6,4.1-11.3,4.4c-2.4,0.1-2.7-3.4-1-4.1c-0.1-0.9,9.2,0.5,10.4-0.9c2.6-1,3.3-5.7,2.4-7.2
			c-0.9-1.5-2.3-0.6-3.4-1.2c-1.1-0.6,1.6-3.1,1.8-3.3c2.3-0.6,4.9,0.2,4.5-0.5c-0.4-0.6-11.5-8.4-18.6-11.1
			c2.8-0.1,2.9-0.1,2.8-1.2c-0.5-1.3-3.7-3.1-5.6-3.6c-1.9-0.5-4.5-0.9-6.1-0.6c1.2,1.6,2.1,2.2,2.5,3.2c-2.9-0.9-6.9-3.5-14.4-2.1
			c1.5,0.7,5.6,1.4,7.5,3c-19.5,3.4-10.6,19.7-12.2,19.7c-2-3.4-4.5-9,0.4-16.9l-0.7,0.4l0.1-0.2l-0.2,0c-1,0.1-2.2,0.2-3.8,0.1
			c-3-0.2-4.4-2.7-4.3-4c0.1-1.3,1.7-3.8,4.9-3.8c0.8,0,1.6,0.2,2.3,0.4l1.3,0.7l-1-1.4C410.6,257.9,409,257.2,407.1,257.2z
			 M428.3,252.1c-0.9,0.1-1.6,0.6-1.6,1.2c-0.1,0.8,0.9,1.6,2.2,1.8s2.5-0.3,2.6-1.2c0.1-0.8-0.9-1.6-2.2-1.8
			C428.9,252.1,428.6,252.1,428.3,252.1z M406.9,251.5c-1.5,0.1-2.6,1-2.5,1.8c0.1,0.9,1.3,1.5,2.8,1.4c1.5-0.1,2.6-1,2.5-1.8
			C409.6,252,408.4,251.4,406.9,251.5z M419,229c2.9,2.4,3.9,4.4,4.8,5.7c-4.6,1.6-3.3,6.5-1.7,7.6c3.4,5.4,12.1,6.1,16.2,4.5
			c0.2-0.4,6.5-2.2,4.3-8.8c0.4-0.8,3.8-3,8.1-3c0,1.5-6,9.8-7.8,13.1c-1.8,3.3-4.3,4.7-1.5,9c0.3-0.2,2.4,2.3,5.4-2.5
			c0,1.5,0.7,7-4,7.4c1,1.3,3.5,1.8,1.7,5.1c4.1,1.7,15.7,10.4,14.3,10.6c-0.5,1.8-1.1,2.1-1.3,3.3c-0.3,2-0.3,7-0.6,8.8
			c-0.7,1.2,0.2-0.2-0.9,2c-0.2,2.5,0.6,8.3-5.5,11.6c-1.2,1.4,0.5-1.3,0.1-2.4c0-0.5-1.1,1.6-5.5,0.3c2.7,2.6,6,13.2,8.4,16.6
			c4.6,3.2,5.4-3.8,5.1-1.5c3.2,11.2-6.1,10.7-7.7,9.6c-0.8,2.5,1.8,11.8-13.1,20.5c-13.8,6-26.5,0.4-31.9-3.7
			c20.1,5.6,25.5-10.6,23.9-18.2c-5.7-13.6-25-19.8-32.7-34.2l0.1-0.1l-0.8-1.1L396,292c-1,17.2,19.1,19.4,19.6,20
			c-5.8,3-8.3,2.6-9.7,2.4c5.7,6.8,3.3,14.1,0.4,17.4c-7.7,5.4-13.3,3.7-17.7,2.2c-4.4-1.5-6.7-6.9-8.9-11.5c3.6,2.1,8.1,3,11.4-0.7
			c3.4-4.6-9.6-17.5-9-30.1c0.4-7.9,2.3-11.1,4.3-13.1l0.8-0.7l-1.4-1.1c-6.7-5.8-4.4-13.3-0.5-17.8c0.1,4.5,3.5,6.7,6.2,5.7
			c1.3-0.5,5.9-1.2,4.2-11.9c10.5-3.2,26.5-3.9,40.1-0.7c-5.7-3-14.4-3.8-18.6-4c-5.8,0.1-14.6,0.5-22.1,2.6l-6.9-17.9
			c2.3,0,5.5,1.7,7.3,3.5c-0.6,2.3-1.9,8.2,6.2,9.5c1.6,0.2,8.5,0.8,13.5-3c2.1-0.7,3.9-5.9-1-8.1C413.2,235.3,416.6,230.1,419,229z
			"/>
	</g>
</g>
</svg>
